<svg width="417" height="54" viewBox="0 0 417 54" fill="none" xmlns="http://www.w3.org/2000/svg">
  <g clip-path="url(#clip0_700_12378)">
    <path d="M0.241211 27.1211V27.035C0.241211 18.3547 6.70924 11.2421 15.9149 11.2421C21.5159 11.2421 24.9011 13.2051 27.8099 15.9964L24.3792 19.9654C21.9467 17.6958 19.3429 16.1711 15.8694 16.1711C10.0945 16.1711 5.83952 20.9711 5.83952 26.9463V27.0323C5.83952 33.0101 10.0516 37.8505 15.8694 37.8505C19.6025 37.8505 21.9895 36.3661 24.596 33.9244L28.0267 37.4148C24.8583 40.7305 21.3847 42.8253 15.6981 42.8253C6.84037 42.8253 0.241211 35.8874 0.241211 27.1211Z" fill="#005091" />
    <path d="M98.6182 11.7665H103.96V24.4616H118.458V11.7665H123.8V42.3036H118.458V29.4337H103.96V42.3036H98.6182V11.7665Z" fill="#005091" />
    <path d="M60.7178 27.1211V27.035C60.7178 18.4407 67.3169 11.2421 76.651 11.2421C85.9851 11.2421 92.4959 18.352 92.4959 26.9463V27.0323C92.4959 35.6266 85.8968 42.8253 76.5627 42.8253C67.2286 42.8253 60.7178 35.7153 60.7178 27.1211ZM86.8976 27.1211V27.035C86.8976 21.1029 82.5999 16.1711 76.5654 16.1711C70.5309 16.1711 66.3188 21.0142 66.3188 26.9463V27.0323C66.3188 32.9644 70.6165 37.8505 76.651 37.8505C82.6855 37.8505 86.8976 33.0505 86.8976 27.1184V27.1211Z" fill="#005091" />
    <path d="M53.8375 28.8744L59.6767 42.3009H54.0329L49.0447 30.5013C50.5834 29.8344 52.1864 29.2912 53.8375 28.8717V28.8744ZM95.2602 42.3009H89.7422C83.8976 32.873 73.4905 26.5967 61.6221 26.5967C58.7507 26.5967 55.965 26.9678 53.3076 27.6589V27.6643C51.6672 28.0919 50.0723 28.6431 48.5362 29.3073C42.3037 32.0018 37.0586 36.5678 33.5022 42.3009H27.9814L41.3537 11.7638H46.3017L51.3648 23.1924C54.6269 22.2727 58.0657 21.7806 61.6221 21.7806C76.2495 21.7806 88.9393 30.1087 95.2602 42.3009ZM46.6603 24.865L43.7407 17.9567L38.9158 29.3692C41.2948 27.5756 43.8933 26.0589 46.6603 24.8623V24.865Z" fill="url(#paint0_linear_700_12378)" />
    <path d="M130.048 39.8807V42.3035H129.612V39.1788H130.118L131.239 40.9671L132.355 39.1788H132.802V42.3035H132.366V39.8807L131.213 41.6877L130.054 39.8807H130.048Z" fill="#005091" />
    <path d="M128.587 39.9049C128.515 39.8027 128.408 39.714 128.269 39.6414C128.014 39.5015 127.602 39.4908 127.378 39.6521C127.174 39.7839 127.155 40.0797 127.343 40.2303C127.431 40.3029 127.535 40.362 127.667 40.3997C127.929 40.4804 128.258 40.5933 128.51 40.717C128.641 40.7815 128.748 40.873 128.833 40.9993C129.066 41.3355 128.981 41.8652 128.654 42.1153C128.132 42.5509 126.992 42.4111 126.652 41.8383L126.968 41.5425C127.233 41.9459 127.923 42.0911 128.314 41.8249C128.544 41.6635 128.552 41.2951 128.309 41.1338C128.188 41.0451 128.041 40.9778 127.873 40.924C127.543 40.8111 127.169 40.7304 126.928 40.4561C126.647 40.1523 126.701 39.5983 127.048 39.3509C127.383 39.0713 128.06 39.0471 128.467 39.2541C128.657 39.3456 128.801 39.4639 128.903 39.6037L128.584 39.9049H128.587Z" fill="#005091" />
  </g>
  <path d="M195.9 15.176C196.644 15.176 197.312 15.072 197.904 14.864C198.496 14.656 198.996 14.368 199.404 14C199.82 13.632 200.136 13.2 200.352 12.704C200.576 12.2 200.688 11.652 200.688 11.06C200.688 9.756 200.288 8.752 199.488 8.048C198.688 7.344 197.492 6.992 195.9 6.992H192.744V15.176H195.9ZM195.9 6.02C197.892 6.02 199.392 6.456 200.4 7.328C201.416 8.2 201.924 9.444 201.924 11.06C201.924 11.804 201.784 12.488 201.504 13.112C201.224 13.736 200.824 14.276 200.304 14.732C199.784 15.18 199.152 15.532 198.408 15.788C197.664 16.036 196.828 16.16 195.9 16.16H192.744V23H191.508V6.02H195.9ZM210.519 14.408C211.271 14.408 211.943 14.32 212.535 14.144C213.135 13.96 213.639 13.7 214.047 13.364C214.463 13.028 214.779 12.624 214.995 12.152C215.211 11.68 215.319 11.148 215.319 10.556C215.319 9.348 214.923 8.452 214.131 7.868C213.347 7.284 212.199 6.992 210.687 6.992H207.579V14.408H210.519ZM218.055 23H216.999C216.863 23 216.747 22.98 216.651 22.94C216.563 22.892 216.479 22.808 216.399 22.688L210.951 15.8C210.887 15.712 210.819 15.636 210.747 15.572C210.683 15.508 210.607 15.46 210.519 15.428C210.439 15.388 210.339 15.36 210.219 15.344C210.107 15.328 209.967 15.32 209.799 15.32H207.579V23H206.343V6.02H210.687C212.639 6.02 214.099 6.4 215.067 7.16C216.043 7.912 216.531 9.02 216.531 10.484C216.531 11.132 216.419 11.724 216.195 12.26C215.971 12.796 215.647 13.268 215.223 13.676C214.807 14.076 214.299 14.404 213.699 14.66C213.107 14.916 212.439 15.088 211.695 15.176C211.887 15.296 212.059 15.456 212.211 15.656L218.055 23ZM236.871 14.504C236.871 15.816 236.675 17.008 236.283 18.08C235.891 19.144 235.339 20.056 234.627 20.816C233.915 21.568 233.059 22.152 232.059 22.568C231.067 22.976 229.971 23.18 228.771 23.18C227.571 23.18 226.475 22.976 225.483 22.568C224.491 22.152 223.639 21.568 222.927 20.816C222.215 20.056 221.663 19.144 221.271 18.08C220.879 17.008 220.683 15.816 220.683 14.504C220.683 13.2 220.879 12.016 221.271 10.952C221.663 9.88 222.215 8.968 222.927 8.216C223.639 7.456 224.491 6.868 225.483 6.452C226.475 6.036 227.571 5.828 228.771 5.828C229.971 5.828 231.067 6.036 232.059 6.452C233.059 6.86 233.915 7.444 234.627 8.204C235.339 8.964 235.891 9.88 236.283 10.952C236.675 12.016 236.871 13.2 236.871 14.504ZM235.599 14.504C235.599 13.32 235.435 12.256 235.107 11.312C234.779 10.368 234.315 9.568 233.715 8.912C233.115 8.256 232.395 7.756 231.555 7.412C230.715 7.06 229.787 6.884 228.771 6.884C227.763 6.884 226.839 7.06 225.999 7.412C225.159 7.756 224.435 8.256 223.827 8.912C223.227 9.568 222.759 10.368 222.423 11.312C222.095 12.256 221.931 13.32 221.931 14.504C221.931 15.696 222.095 16.764 222.423 17.708C222.759 18.644 223.227 19.44 223.827 20.096C224.435 20.752 225.159 21.252 225.999 21.596C226.839 21.94 227.763 22.112 228.771 22.112C229.787 22.112 230.715 21.94 231.555 21.596C232.395 21.252 233.115 20.752 233.715 20.096C234.315 19.44 234.779 18.644 235.107 17.708C235.435 16.764 235.599 15.696 235.599 14.504ZM254.269 6.02L247.261 23H246.169L239.161 6.02H240.133C240.245 6.02 240.337 6.052 240.409 6.116C240.481 6.172 240.537 6.248 240.577 6.344L246.361 20.432C246.425 20.608 246.489 20.796 246.553 20.996C246.617 21.196 246.677 21.4 246.733 21.608C246.781 21.4 246.833 21.196 246.889 20.996C246.945 20.796 247.009 20.608 247.081 20.432L252.853 6.344C252.885 6.256 252.941 6.18 253.021 6.116C253.101 6.052 253.197 6.02 253.309 6.02H254.269ZM259.279 23H258.043V6.02H259.279V23ZM279.565 14.504C279.565 15.816 279.369 16.996 278.977 18.044C278.585 19.092 278.033 19.984 277.321 20.72C276.609 21.456 275.753 22.02 274.753 22.412C273.761 22.804 272.665 23 271.465 23H265.261V6.02H271.465C272.665 6.02 273.761 6.216 274.753 6.608C275.753 7 276.609 7.564 277.321 8.3C278.033 9.036 278.585 9.928 278.977 10.976C279.369 12.024 279.565 13.2 279.565 14.504ZM278.293 14.504C278.293 13.32 278.129 12.264 277.801 11.336C277.473 10.408 277.009 9.624 276.409 8.984C275.809 8.344 275.089 7.856 274.249 7.52C273.409 7.184 272.481 7.016 271.465 7.016H266.497V22.004H271.465C272.481 22.004 273.409 21.836 274.249 21.5C275.089 21.164 275.809 20.676 276.409 20.036C277.009 19.396 277.473 18.612 277.801 17.684C278.129 16.756 278.293 15.696 278.293 14.504ZM294.656 21.98L294.632 23H284.456V6.02H294.632V7.04H285.692V13.904H293.132V14.9H285.692V21.98H294.656ZM303.513 14.408C304.265 14.408 304.937 14.32 305.529 14.144C306.129 13.96 306.633 13.7 307.041 13.364C307.457 13.028 307.773 12.624 307.989 12.152C308.205 11.68 308.313 11.148 308.313 10.556C308.313 9.348 307.917 8.452 307.125 7.868C306.341 7.284 305.193 6.992 303.681 6.992H300.573V14.408H303.513ZM311.049 23H309.993C309.857 23 309.741 22.98 309.645 22.94C309.557 22.892 309.473 22.808 309.393 22.688L303.945 15.8C303.881 15.712 303.813 15.636 303.741 15.572C303.677 15.508 303.601 15.46 303.513 15.428C303.433 15.388 303.333 15.36 303.213 15.344C303.101 15.328 302.961 15.32 302.793 15.32H300.573V23H299.337V6.02H303.681C305.633 6.02 307.093 6.4 308.061 7.16C309.037 7.912 309.525 9.02 309.525 10.484C309.525 11.132 309.413 11.724 309.189 12.26C308.965 12.796 308.641 13.268 308.217 13.676C307.801 14.076 307.293 14.404 306.693 14.66C306.101 14.916 305.433 15.088 304.689 15.176C304.881 15.296 305.053 15.456 305.205 15.656L311.049 23ZM336.655 14.504C336.655 15.816 336.459 16.996 336.067 18.044C335.675 19.092 335.123 19.984 334.411 20.72C333.699 21.456 332.843 22.02 331.843 22.412C330.851 22.804 329.755 23 328.555 23H322.351V6.02H328.555C329.755 6.02 330.851 6.216 331.843 6.608C332.843 7 333.699 7.564 334.411 8.3C335.123 9.036 335.675 9.928 336.067 10.976C336.459 12.024 336.655 13.2 336.655 14.504ZM335.383 14.504C335.383 13.32 335.219 12.264 334.891 11.336C334.563 10.408 334.099 9.624 333.499 8.984C332.899 8.344 332.179 7.856 331.339 7.52C330.499 7.184 329.571 7.016 328.555 7.016H323.587V22.004H328.555C329.571 22.004 330.499 21.836 331.339 21.5C332.179 21.164 332.899 20.676 333.499 20.036C334.099 19.396 334.563 18.612 334.891 17.684C335.219 16.756 335.383 15.696 335.383 14.504ZM350.327 16.832L346.871 8.252C346.751 7.972 346.635 7.636 346.523 7.244C346.475 7.436 346.423 7.62 346.367 7.796C346.311 7.964 346.251 8.12 346.187 8.264L342.731 16.832H350.327ZM354.083 23H353.135C353.023 23 352.931 22.972 352.859 22.916C352.787 22.852 352.731 22.772 352.691 22.676L350.699 17.744H342.359L340.367 22.676C340.335 22.764 340.279 22.84 340.199 22.904C340.119 22.968 340.023 23 339.911 23H338.975L345.923 6.02H347.135L354.083 23ZM367.21 7.064H361.246V23H360.01V7.064H354.01V6.02H367.21V7.064ZM378.52 16.832L375.064 8.252C374.944 7.972 374.828 7.636 374.716 7.244C374.668 7.436 374.616 7.62 374.56 7.796C374.504 7.964 374.444 8.12 374.38 8.264L370.924 16.832H378.52ZM382.276 23H381.328C381.216 23 381.124 22.972 381.052 22.916C380.98 22.852 380.924 22.772 380.884 22.676L378.892 17.744H370.552L368.56 22.676C368.528 22.764 368.472 22.84 368.392 22.904C368.312 22.968 368.216 23 368.104 23H367.168L374.116 6.02H375.328L382.276 23ZM195.9 42.176C196.644 42.176 197.312 42.072 197.904 41.864C198.496 41.656 198.996 41.368 199.404 41C199.82 40.632 200.136 40.2 200.352 39.704C200.576 39.2 200.688 38.652 200.688 38.06C200.688 36.756 200.288 35.752 199.488 35.048C198.688 34.344 197.492 33.992 195.9 33.992H192.744V42.176H195.9ZM195.9 33.02C197.892 33.02 199.392 33.456 200.4 34.328C201.416 35.2 201.924 36.444 201.924 38.06C201.924 38.804 201.784 39.488 201.504 40.112C201.224 40.736 200.824 41.276 200.304 41.732C199.784 42.18 199.152 42.532 198.408 42.788C197.664 43.036 196.828 43.16 195.9 43.16H192.744V50H191.508V33.02H195.9ZM221.427 41.504C221.427 42.816 221.231 44.008 220.839 45.08C220.447 46.144 219.895 47.056 219.183 47.816C218.471 48.568 217.615 49.152 216.615 49.568C215.623 49.976 214.527 50.18 213.327 50.18C212.127 50.18 211.031 49.976 210.039 49.568C209.047 49.152 208.195 48.568 207.483 47.816C206.771 47.056 206.219 46.144 205.827 45.08C205.435 44.008 205.239 42.816 205.239 41.504C205.239 40.2 205.435 39.016 205.827 37.952C206.219 36.88 206.771 35.968 207.483 35.216C208.195 34.456 209.047 33.868 210.039 33.452C211.031 33.036 212.127 32.828 213.327 32.828C214.527 32.828 215.623 33.036 216.615 33.452C217.615 33.86 218.471 34.444 219.183 35.204C219.895 35.964 220.447 36.88 220.839 37.952C221.231 39.016 221.427 40.2 221.427 41.504ZM220.155 41.504C220.155 40.32 219.991 39.256 219.663 38.312C219.335 37.368 218.871 36.568 218.271 35.912C217.671 35.256 216.951 34.756 216.111 34.412C215.271 34.06 214.343 33.884 213.327 33.884C212.319 33.884 211.395 34.06 210.555 34.412C209.715 34.756 208.991 35.256 208.383 35.912C207.783 36.568 207.315 37.368 206.979 38.312C206.651 39.256 206.487 40.32 206.487 41.504C206.487 42.696 206.651 43.764 206.979 44.708C207.315 45.644 207.783 46.44 208.383 47.096C208.991 47.752 209.715 48.252 210.555 48.596C211.395 48.94 212.319 49.112 213.327 49.112C214.343 49.112 215.271 48.94 216.111 48.596C216.951 48.252 217.671 47.752 218.271 47.096C218.871 46.44 219.335 45.644 219.663 44.708C219.991 43.764 220.155 42.696 220.155 41.504ZM230.463 41.408C231.215 41.408 231.887 41.32 232.479 41.144C233.079 40.96 233.583 40.7 233.991 40.364C234.407 40.028 234.723 39.624 234.939 39.152C235.155 38.68 235.263 38.148 235.263 37.556C235.263 36.348 234.867 35.452 234.075 34.868C233.291 34.284 232.143 33.992 230.631 33.992H227.523V41.408H230.463ZM237.999 50H236.943C236.807 50 236.691 49.98 236.595 49.94C236.507 49.892 236.423 49.808 236.343 49.688L230.895 42.8C230.831 42.712 230.763 42.636 230.691 42.572C230.627 42.508 230.551 42.46 230.463 42.428C230.383 42.388 230.283 42.36 230.163 42.344C230.051 42.328 229.911 42.32 229.743 42.32H227.523V50H226.287V33.02H230.631C232.583 33.02 234.043 33.4 235.011 34.16C235.987 34.912 236.475 36.02 236.475 37.484C236.475 38.132 236.363 38.724 236.139 39.26C235.915 39.796 235.591 40.268 235.167 40.676C234.751 41.076 234.243 41.404 233.643 41.66C233.051 41.916 232.383 42.088 231.639 42.176C231.831 42.296 232.003 42.456 232.155 42.656L237.999 50ZM252.162 34.064H246.198V50H244.962V34.064H238.962V33.02H252.162V34.064ZM263.473 43.832L260.017 35.252C259.897 34.972 259.781 34.636 259.669 34.244C259.621 34.436 259.569 34.62 259.513 34.796C259.457 34.964 259.397 35.12 259.333 35.264L255.877 43.832H263.473ZM267.229 50H266.281C266.169 50 266.077 49.972 266.005 49.916C265.933 49.852 265.877 49.772 265.837 49.676L263.845 44.744H255.505L253.513 49.676C253.481 49.764 253.425 49.84 253.345 49.904C253.265 49.968 253.169 50 253.057 50H252.121L259.069 33.02H260.281L267.229 50ZM280.279 48.956V50H271.003V33.02H272.239V48.956H280.279Z" fill="#0055A3" />
  <path d="M161.847 3H161V51.7462H161.847V3Z" fill="#0055A3" />
  <defs>
    <linearGradient id="paint0_linear_700_12378" x1="27.9841" y1="27.0351" x2="95.2629" y2="27.0351" gradientUnits="userSpaceOnUse">
      <stop offset="0.16" stop-color="#005091" />
      <stop offset="0.36" stop-color="#0089C6" />
      <stop offset="0.48" stop-color="#00A6E0" />
      <stop offset="0.55" stop-color="#009FDA" />
      <stop offset="0.64" stop-color="#008DC9" />
      <stop offset="0.74" stop-color="#0071AF" />
      <stop offset="0.84" stop-color="#005091" />
    </linearGradient>
    <clipPath id="clip0_700_12378">
      <rect width="133" height="32" fill="white" transform="translate(0 11)" />
    </clipPath>
  </defs>
</svg>
